<svg width="16" height="16" viewBox="0 0 16 16" fill="none" xmlns="http://www.w3.org/2000/svg">
<path fill-rule="evenodd" clip-rule="evenodd" d="M7.99887 1.50683C8.67975 1.26029 9.36075 1.0137 10.706 1.0137V1.0127C11.7939 1.02553 12.8685 1.25465 13.867 1.6867L16 14.2897C14.8757 13.5498 13.5526 13.1699 12.207 13.2007C10.3745 13.2007 9.18725 13.6007 8 14.0007C6.81275 14.4007 5.6255 14.8007 3.793 14.8007C2.49252 14.8358 1.19948 14.5934 0 14.0897L2.133 1.4877C3.15388 1.82068 4.22021 1.9934 5.294 1.9997C6.63775 1.9997 7.31825 1.75329 7.99887 1.50683ZM7.681 13.0517C9.12568 12.4962 10.6592 12.2075 12.207 12.1997C13.0509 12.198 13.8902 12.3248 14.696 12.5757L12.976 2.4127C12.2456 2.15887 11.4792 2.02415 10.706 2.0137C9.89555 1.99407 9.08976 2.14181 8.339 2.4477C7.37081 2.83236 6.33561 3.02002 5.294 2.9997C4.50075 2.99551 3.71012 2.90837 2.935 2.7397L1.125 13.4367C1.9927 13.6832 2.89098 13.8054 3.793 13.7997C5.12366 13.7884 6.44114 13.5349 7.681 13.0517ZM3.896 3.9997L3.117 11.9997H12.883L12.104 3.9997H3.896ZM11.197 4.9997H10V5.9997H11.295L11.197 4.9997ZM10 6.9997H11.392L11.489 7.9997H10V6.9997ZM4.219 10.9997H6V8.9997H4.413L4.219 10.9997ZM6 7.9997H4.51L4.608 6.9997H6V7.9997ZM4.705 5.9997H6V4.9997H4.803L4.705 5.9997ZM9 10.9997H7V8.9997H9V10.9997ZM7 7.9997H9V6.9997H7V7.9997ZM9 5.9997H7V4.9997H9V5.9997ZM10 8.9997V10.9997H11.781L11.587 8.9997H10Z" fill="black"/>
</svg>
